<?xml version="1.0" encoding="UTF-8"?>
<!DOCTYPE svg PUBLIC "-//W3C//DTD SVG 1.1//EN" "http://www.w3.org/Graphics/SVG/1.1/DTD/svg11.dtd">
<svg xmlns="http://www.w3.org/2000/svg" version="1.1" width="89px" height="89px" style="shape-rendering:geometricPrecision; text-rendering:geometricPrecision; image-rendering:optimizeQuality; fill-rule:evenodd; clip-rule:evenodd" xmlns:xlink="http://www.w3.org/1999/xlink">
<g><path style="opacity:1" fill="#fdf8f9" d="M -0.5,-0.5 C 29.1667,-0.5 58.8333,-0.5 88.5,-0.5C 88.5,29.1667 88.5,58.8333 88.5,88.5C 83.5,88.5 78.5,88.5 73.5,88.5C 73.7892,84.8936 73.4558,81.3936 72.5,78C 74.5,77.6667 76.5,77.3333 78.5,77C 79.9423,76.6232 80.9423,75.7899 81.5,74.5C 82.8999,73.9002 83.8999,72.9002 84.5,71.5C 85.1667,71.8333 85.8333,72.1667 86.5,72.5C 87.1582,71.2067 87.4915,69.7067 87.5,68C 87.0347,65.3967 86.368,62.8967 85.5,60.5C 84.2721,58.9902 84.2721,57.4902 85.5,56C 84.552,55.5172 83.552,55.3505 82.5,55.5C 82.5,50.1667 82.5,44.8333 82.5,39.5C 80.2188,39.9227 78.5521,39.256 77.5,37.5C 78.1667,36.8333 78.8333,36.1667 79.5,35.5C 79.1667,34.8333 78.8333,34.1667 78.5,33.5C 79.6412,32.661 80.9745,31.9943 82.5,31.5C 83.3857,30.675 83.719,29.675 83.5,28.5C 82.5,28.5 81.5,28.5 80.5,28.5C 76.5059,27.608 72.6726,27.2747 69,27.5C 68.6121,28.428 67.9454,29.0946 67,29.5C 64.0505,28.3031 61.2171,26.9698 58.5,25.5C 56.6051,23.7587 54.2718,22.7587 51.5,22.5C 43.801,20.6427 36.4676,21.6427 29.5,25.5C 24.4409,25.0351 19.7743,23.3685 15.5,20.5C 16.9501,19.1502 17.6168,17.4835 17.5,15.5C 16.5,15.5 15.5,15.5 14.5,15.5C 11.3077,14.3843 9.64108,12.051 9.5,8.5C 8.01862,9.48032 6.68529,10.647 5.5,12C 3.5273,12.4955 1.5273,12.6621 -0.5,12.5C -0.5,8.16667 -0.5,3.83333 -0.5,-0.5 Z"/></g>
<g><path style="opacity:1" fill="#a8a372" d="M 14.5,15.5 C 14.5,15.8333 14.5,16.1667 14.5,16.5C 12.8333,16.5 11.1667,16.5 9.5,16.5C 9.66018,14.8008 9.49351,13.1341 9,11.5C 7.58043,13.422 5.74709,14.7554 3.5,15.5C 4.71222,17.4284 4.37889,19.0951 2.5,20.5C 3.83333,21.1667 5.16667,21.8333 6.5,22.5C 4.39605,22.7989 2.39605,22.4656 0.5,21.5C 3.50572,18.2654 3.17239,15.5988 -0.5,13.5C -0.5,13.1667 -0.5,12.8333 -0.5,12.5C 1.5273,12.6621 3.5273,12.4955 5.5,12C 6.68529,10.647 8.01862,9.48032 9.5,8.5C 9.64108,12.051 11.3077,14.3843 14.5,15.5 Z"/></g>
<g><path style="opacity:1" fill="#e5e963" d="M 14.5,16.5 C 13.1516,17.6006 11.6516,18.6006 10,19.5C 9.78997,21.0581 9.28997,22.3915 8.5,23.5C 7.32018,21.087 5.32018,20.087 2.5,20.5C 4.37889,19.0951 4.71222,17.4284 3.5,15.5C 5.74709,14.7554 7.58043,13.422 9,11.5C 9.49351,13.1341 9.66018,14.8008 9.5,16.5C 11.1667,16.5 12.8333,16.5 14.5,16.5 Z"/></g>
<g><path style="opacity:1" fill="#a09f3e" d="M 2.5,20.5 C 5.32018,20.087 7.32018,21.087 8.5,23.5C 8.16667,23.5 7.83333,23.5 7.5,23.5C 6.83333,23.5 6.5,23.1667 6.5,22.5C 5.16667,21.8333 3.83333,21.1667 2.5,20.5 Z"/></g>
<g><path style="opacity:1" fill="#acaa6e" d="M 14.5,16.5 C 15.0431,16.56 15.3764,16.8933 15.5,17.5C 14.6533,18.8448 13.4866,19.8448 12,20.5C 11.3923,22.1545 10.8923,23.8211 10.5,25.5C 8.97306,25.573 7.97306,24.9063 7.5,23.5C 7.83333,23.5 8.16667,23.5 8.5,23.5C 9.28997,22.3915 9.78997,21.0581 10,19.5C 11.6516,18.6006 13.1516,17.6006 14.5,16.5 Z"/></g>
<g><path style="opacity:1" fill="#38311b" d="M 51.5,22.5 C 53.3949,24.2413 55.7282,25.2413 58.5,25.5C 60.4611,27.9635 62.6278,30.2968 65,32.5C 65.662,34.8127 66.162,37.146 66.5,39.5C 66.9039,44.3993 66.2373,49.066 64.5,53.5C 60.1805,55.5061 55.8471,56.1728 51.5,55.5C 53.8333,54.1667 56.1667,52.8333 58.5,51.5C 59.7095,51.0679 60.7095,50.4013 61.5,49.5C 62.6341,47.0336 62.8007,44.367 62,41.5C 61.7996,39.6803 60.9663,38.347 59.5,37.5C 58.8897,35.5659 57.8897,33.8993 56.5,32.5C 52.9919,29.5012 49.8253,29.8345 47,33.5C 46.1993,36.367 46.3659,39.0336 47.5,41.5C 48.6005,42.6049 49.2671,43.9382 49.5,45.5C 49.1667,45.5 48.8333,45.5 48.5,45.5C 45.1667,45.5 41.8333,45.5 38.5,45.5C 38.4326,44.0413 38.7659,42.7079 39.5,41.5C 40.6341,39.0336 40.8007,36.367 40,33.5C 39.6174,32.944 39.1174,32.6107 38.5,32.5C 34.8829,30.7642 32.2162,31.7642 30.5,35.5C 29.8333,35.8333 29.1667,36.1667 28.5,36.5C 26.5,35.8333 25.1667,34.5 24.5,32.5C 25.7536,29.9066 27.4202,27.5732 29.5,25.5C 36.4676,21.6427 43.801,20.6427 51.5,22.5 Z"/></g>
<g><path style="opacity:1" fill="#9c9d8f" d="M 20.5,29.5 C 19.8333,28.5 19.1667,27.5 18.5,26.5C 17.7701,25.2876 16.7701,24.2876 15.5,23.5C 16,23.1667 16.5,22.8333 17,22.5C 18.1681,23.5089 19.3348,24.5089 20.5,25.5C 21.782,26.9584 21.782,28.2918 20.5,29.5 Z"/></g>
<g><path style="opacity:1" fill="#f0eee5" d="M 14.5,16.5 C 14.5,16.1667 14.5,15.8333 14.5,15.5C 15.5,15.5 16.5,15.5 17.5,15.5C 17.6168,17.4835 16.9501,19.1502 15.5,20.5C 19.7743,23.3685 24.4409,25.0351 29.5,25.5C 27.4202,27.5732 25.7536,29.9066 24.5,32.5C 23.8333,32.5 23.5,32.8333 23.5,33.5C 21.1938,36.4729 18.5272,39.1395 15.5,41.5C 17.3863,37.4463 20.053,33.7796 23.5,30.5C 22.5281,30.407 21.5281,30.0736 20.5,29.5C 21.782,28.2918 21.782,26.9584 20.5,25.5C 19.3348,24.5089 18.1681,23.5089 17,22.5C 16.5,22.8333 16,23.1667 15.5,23.5C 16.7701,24.2876 17.7701,25.2876 18.5,26.5C 15.8333,26.1667 13.1667,25.8333 10.5,25.5C 10.8923,23.8211 11.3923,22.1545 12,20.5C 13.4866,19.8448 14.6533,18.8448 15.5,17.5C 15.3764,16.8933 15.0431,16.56 14.5,16.5 Z"/></g>
<g><path style="opacity:1" fill="#a59b92" d="M 51.5,22.5 C 54.2718,22.7587 56.6051,23.7587 58.5,25.5C 55.7282,25.2413 53.3949,24.2413 51.5,22.5 Z"/></g>
<g><path style="opacity:1" fill="#ece8e0" d="M 58.5,25.5 C 61.2171,26.9698 64.0505,28.3031 67,29.5C 67.9454,29.0946 68.6121,28.428 69,27.5C 72.6726,27.2747 76.5059,27.608 80.5,28.5C 79.5,29.5 78.5,30.5 77.5,31.5C 76.2876,32.2299 75.2876,33.2299 74.5,34.5C 73.3338,32.6351 73.6671,30.9684 75.5,29.5C 74.3112,28.5713 72.9778,28.238 71.5,28.5C 70.8641,31.1062 70.8641,33.6062 71.5,36C 74.1572,36.1747 76.8239,36.0081 79.5,35.5C 78.8333,36.1667 78.1667,36.8333 77.5,37.5C 76.5,37.5 75.5,37.5 74.5,37.5C 74.5,38.5 74.5,39.5 74.5,40.5C 75.8333,40.5 77.1667,40.5 78.5,40.5C 78.6567,41.8734 78.49,43.2068 78,44.5C 77.6174,43.944 77.1174,43.6107 76.5,43.5C 76.1193,44.9311 75.1193,45.7645 73.5,46C 74.4158,46.2784 75.0825,46.7784 75.5,47.5C 74.325,47.281 73.325,47.6143 72.5,48.5C 72.8793,50.2131 73.8793,51.2131 75.5,51.5C 74.1917,52.2323 72.8584,53.0656 71.5,54C 72.6843,55.1455 72.6843,56.3121 71.5,57.5C 70.7677,56.1917 69.9344,54.8584 69,53.5C 68.8255,48.6486 68.3255,43.9819 67.5,39.5C 67.1667,39.5 66.8333,39.5 66.5,39.5C 66.162,37.146 65.662,34.8127 65,32.5C 62.6278,30.2968 60.4611,27.9635 58.5,25.5 Z"/></g>
<g><path style="opacity:1" fill="#fcf7f8" d="M -0.5,13.5 C 3.17239,15.5988 3.50572,18.2654 0.5,21.5C 2.39605,22.4656 4.39605,22.7989 6.5,22.5C 6.5,23.1667 6.83333,23.5 7.5,23.5C 7.97306,24.9063 8.97306,25.573 10.5,25.5C 13.1667,25.8333 15.8333,26.1667 18.5,26.5C 19.1667,27.5 19.8333,28.5 20.5,29.5C 21.5281,30.0736 22.5281,30.407 23.5,30.5C 20.053,33.7796 17.3863,37.4463 15.5,41.5C 14.5423,42.9616 13.3756,44.2949 12,45.5C 11.6178,53.5869 13.2844,61.2535 17,68.5C 17.4735,75.1796 17.3069,81.8463 16.5,88.5C 10.8333,88.5 5.16667,88.5 -0.5,88.5C -0.5,63.5 -0.5,38.5 -0.5,13.5 Z"/></g>
<g><path style="opacity:1" fill="#abaaa8" d="M 80.5,28.5 C 81.5,28.5 82.5,28.5 83.5,28.5C 83.719,29.675 83.3857,30.675 82.5,31.5C 80.9745,31.9943 79.6412,32.661 78.5,33.5C 77.6618,33.1583 77.3284,32.4916 77.5,31.5C 78.5,30.5 79.5,29.5 80.5,28.5 Z"/></g>
<g><path style="opacity:1" fill="#7c7c72" d="M 77.5,31.5 C 77.3284,32.4916 77.6618,33.1583 78.5,33.5C 78.8333,34.1667 79.1667,34.8333 79.5,35.5C 76.8239,36.0081 74.1572,36.1747 71.5,36C 70.8641,33.6062 70.8641,31.1062 71.5,28.5C 72.9778,28.238 74.3112,28.5713 75.5,29.5C 73.6671,30.9684 73.3338,32.6351 74.5,34.5C 75.2876,33.2299 76.2876,32.2299 77.5,31.5 Z"/></g>
<g><path style="opacity:1" fill="#c5beac" d="M 56.5,32.5 C 57.8897,33.8993 58.8897,35.5659 59.5,37.5C 57.2407,36.656 56.2407,34.9893 56.5,32.5 Z"/></g>
<g><path style="opacity:1" fill="#8f877b" d="M 30.5,35.5 C 30.573,37.0269 29.9063,38.0269 28.5,38.5C 28.5,37.8333 28.5,37.1667 28.5,36.5C 29.1667,36.1667 29.8333,35.8333 30.5,35.5 Z"/></g>
<g><path style="opacity:1" fill="#d4d0bf" d="M 38.5,32.5 C 36.1727,32.2471 34.1727,32.9137 32.5,34.5C 31.9149,36.8648 30.7482,38.8648 29,40.5C 28.5014,44.1516 28.3347,47.8183 28.5,51.5C 27.6618,51.1583 27.3284,50.4916 27.5,49.5C 27.244,45.7307 27.5773,42.0641 28.5,38.5C 29.9063,38.0269 30.573,37.0269 30.5,35.5C 32.2162,31.7642 34.8829,30.7642 38.5,32.5 Z"/></g>
<g><path style="opacity:1" fill="#575140" d="M 24.5,32.5 C 25.1667,34.5 26.5,35.8333 28.5,36.5C 28.5,37.1667 28.5,37.8333 28.5,38.5C 27.5773,42.0641 27.244,45.7307 27.5,49.5C 26.6805,46.6946 26.1805,43.6946 26,40.5C 25.6174,41.056 25.1174,41.3893 24.5,41.5C 24.821,40.1825 25.1543,38.8492 25.5,37.5C 25.2528,36.2867 24.5862,35.62 23.5,35.5C 23.5,34.8333 23.5,34.1667 23.5,33.5C 23.5,32.8333 23.8333,32.5 24.5,32.5 Z"/></g>
<g><path style="opacity:1" fill="#7f7e74" d="M 76.5,43.5 C 74.9582,44.3007 73.2915,44.634 71.5,44.5C 71.2011,42.396 71.5344,40.396 72.5,38.5C 73.3086,41.4269 74.6419,43.0936 76.5,43.5 Z"/></g>
<g><path style="opacity:1" fill="#f7f5f0" d="M 77.5,37.5 C 78.5521,39.256 80.2188,39.9227 82.5,39.5C 82.5,44.8333 82.5,50.1667 82.5,55.5C 83.552,55.3505 84.552,55.5172 85.5,56C 84.2721,57.4902 84.2721,58.9902 85.5,60.5C 84.209,60.2627 83.209,60.596 82.5,61.5C 81.2825,62.1614 79.9492,62.8281 78.5,63.5C 82.4505,64.7445 84.4505,67.4111 84.5,71.5C 83.8999,72.9002 82.8999,73.9002 81.5,74.5C 81.5,72.5 80.5,71.5 78.5,71.5C 77.2257,67.2728 75.2257,63.6061 72.5,60.5C 72.6716,59.5084 72.3382,58.8417 71.5,58.5C 71.5,58.1667 71.5,57.8333 71.5,57.5C 72.6843,56.3121 72.6843,55.1455 71.5,54C 72.8584,53.0656 74.1917,52.2323 75.5,51.5C 76.6857,50.0387 76.6857,48.7054 75.5,47.5C 75.0825,46.7784 74.4158,46.2784 73.5,46C 75.1193,45.7645 76.1193,44.9311 76.5,43.5C 77.1174,43.6107 77.6174,43.944 78,44.5C 78.49,43.2068 78.6567,41.8734 78.5,40.5C 77.1667,40.5 75.8333,40.5 74.5,40.5C 74.5,39.5 74.5,38.5 74.5,37.5C 75.5,37.5 76.5,37.5 77.5,37.5 Z"/></g>
<g><path style="opacity:1" fill="#645a40" d="M 59.5,37.5 C 60.9663,38.347 61.7996,39.6803 62,41.5C 62.8007,44.367 62.6341,47.0336 61.5,49.5C 61.8016,46.9407 61.4682,44.6074 60.5,42.5C 60.3713,40.7839 60.038,39.1172 59.5,37.5 Z"/></g>
<g><path style="opacity:1" fill="#c5c0a8" d="M 60.5,42.5 C 61.4682,44.6074 61.8016,46.9407 61.5,49.5C 60.7095,50.4013 59.7095,51.0679 58.5,51.5C 59.7755,48.6644 60.4422,45.6644 60.5,42.5 Z"/></g>
<g><path style="opacity:1" fill="#73725d" d="M 24.5,41.5 C 24.0371,44.4824 23.7038,47.4824 23.5,50.5C 22.8476,49.5514 22.5143,48.3847 22.5,47C 22.3932,44.7794 23.0598,42.9461 24.5,41.5 Z"/></g>
<g><path style="opacity:1" fill="#514a3b" d="M 66.5,39.5 C 66.8333,39.5 67.1667,39.5 67.5,39.5C 67.8182,44.0323 67.4849,48.3656 66.5,52.5C 65.8333,52.8333 65.1667,53.1667 64.5,53.5C 66.2373,49.066 66.9039,44.3993 66.5,39.5 Z"/></g>
<g><path style="opacity:1" fill="#f6faee" d="M 56.5,32.5 C 56.2407,34.9893 57.2407,36.656 59.5,37.5C 60.038,39.1172 60.3713,40.7839 60.5,42.5C 60.4422,45.6644 59.7755,48.6644 58.5,51.5C 56.1667,52.8333 53.8333,54.1667 51.5,55.5C 45.7414,55.7857 40.0748,55.4524 34.5,54.5C 32.5439,53.5082 30.5439,52.5082 28.5,51.5C 28.3347,47.8183 28.5014,44.1516 29,40.5C 30.7482,38.8648 31.9149,36.8648 32.5,34.5C 34.1727,32.9137 36.1727,32.2471 38.5,32.5C 39.1174,32.6107 39.6174,32.944 40,33.5C 40.8007,36.367 40.6341,39.0336 39.5,41.5C 37.412,40.0605 35.0786,39.3939 32.5,39.5C 32.2322,41.099 32.5655,42.4324 33.5,43.5C 33.8333,43.5 34.1667,43.5 34.5,43.5C 36.6258,45.5466 39.2924,46.5466 42.5,46.5C 44.6965,46.4954 46.6965,46.162 48.5,45.5C 48.8333,45.5 49.1667,45.5 49.5,45.5C 50.2679,44.7375 50.7679,43.7375 51,42.5C 52.4007,44.1922 54.2341,44.8588 56.5,44.5C 56.5,42.8333 56.5,41.1667 56.5,39.5C 54.5168,39.1568 53.1834,39.8235 52.5,41.5C 50.8333,41.5 49.1667,41.5 47.5,41.5C 46.3659,39.0336 46.1993,36.367 47,33.5C 49.8253,29.8345 52.9919,29.5012 56.5,32.5 Z"/></g>
<g><path style="opacity:1" fill="#dfdfd3" d="M 39.5,41.5 C 38.7659,42.7079 38.4326,44.0413 38.5,45.5C 41.8333,45.5 45.1667,45.5 48.5,45.5C 46.6965,46.162 44.6965,46.4954 42.5,46.5C 39.2924,46.5466 36.6258,45.5466 34.5,43.5C 36.7049,43.1541 36.8716,42.4874 35,41.5C 33.9701,41.8361 33.4701,42.5028 33.5,43.5C 32.5655,42.4324 32.2322,41.099 32.5,39.5C 35.0786,39.3939 37.412,40.0605 39.5,41.5 Z"/></g>
<g><path style="opacity:1" fill="#dbdccf" d="M 49.5,45.5 C 49.2671,43.9382 48.6005,42.6049 47.5,41.5C 49.1667,41.5 50.8333,41.5 52.5,41.5C 53.1834,39.8235 54.5168,39.1568 56.5,39.5C 56.5,41.1667 56.5,42.8333 56.5,44.5C 54.2341,44.8588 52.4007,44.1922 51,42.5C 50.7679,43.7375 50.2679,44.7375 49.5,45.5 Z"/></g>
<g><path style="opacity:1" fill="#5d6152" d="M 52.5,41.5 C 53.675,41.281 54.675,41.6143 55.5,42.5C 53.9483,43.7979 52.9483,43.4646 52.5,41.5 Z"/></g>
<g><path style="opacity:1" fill="#636258" d="M 34.5,43.5 C 34.1667,43.5 33.8333,43.5 33.5,43.5C 33.4701,42.5028 33.9701,41.8361 35,41.5C 36.8716,42.4874 36.7049,43.1541 34.5,43.5 Z"/></g>
<g><path style="opacity:1" fill="#7e7c76" d="M 75.5,47.5 C 76.6857,48.7054 76.6857,50.0387 75.5,51.5C 73.8793,51.2131 72.8793,50.2131 72.5,48.5C 73.325,47.6143 74.325,47.281 75.5,47.5 Z"/></g>
<g><path style="opacity:1" fill="#3e3c26" d="M 27.5,49.5 C 27.3284,50.4916 27.6618,51.1583 28.5,51.5C 29.6874,53.9754 31.6874,54.9754 34.5,54.5C 29.6094,57.5858 25.9427,56.2524 23.5,50.5C 23.7038,47.4824 24.0371,44.4824 24.5,41.5C 25.1174,41.3893 25.6174,41.056 26,40.5C 26.1805,43.6946 26.6805,46.6946 27.5,49.5 Z"/></g>
<g><path style="opacity:1" fill="#aeaea1" d="M 28.5,51.5 C 30.5439,52.5082 32.5439,53.5082 34.5,54.5C 31.6874,54.9754 29.6874,53.9754 28.5,51.5 Z"/></g>
<g><path style="opacity:1" fill="#959082" d="M 67.5,39.5 C 68.3255,43.9819 68.8255,48.6486 69,53.5C 69.9344,54.8584 70.7677,56.1917 71.5,57.5C 71.5,57.8333 71.5,58.1667 71.5,58.5C 70.9232,59.7733 70.2565,59.7733 69.5,58.5C 68.4867,56.4734 67.4867,54.4734 66.5,52.5C 67.4849,48.3656 67.8182,44.0323 67.5,39.5 Z"/></g>
<g><path style="opacity:1" fill="#d4d2c5" d="M 23.5,35.5 C 24.5862,35.62 25.2528,36.2867 25.5,37.5C 25.1543,38.8492 24.821,40.1825 24.5,41.5C 23.0598,42.9461 22.3932,44.7794 22.5,47C 22.5143,48.3847 22.8476,49.5514 23.5,50.5C 25.9427,56.2524 29.6094,57.5858 34.5,54.5C 40.0748,55.4524 45.7414,55.7857 51.5,55.5C 55.8471,56.1728 60.1805,55.5061 64.5,53.5C 65.1667,53.1667 65.8333,52.8333 66.5,52.5C 67.4867,54.4734 68.4867,56.4734 69.5,58.5C 70.2565,59.7733 70.9232,59.7733 71.5,58.5C 72.3382,58.8417 72.6716,59.5084 72.5,60.5C 71.475,60.8966 71.3083,61.5632 72,62.5C 73.7533,65.0048 75.2533,67.6714 76.5,70.5C 76.9569,71.2975 77.6236,71.6309 78.5,71.5C 79.1712,72.8471 79.1712,74.0138 78.5,75C 75.8428,75.1747 73.1761,75.0081 70.5,74.5C 70.5,79.1667 70.5,83.8333 70.5,88.5C 53.5,88.5 36.5,88.5 19.5,88.5C 19.0363,81.0327 19.703,73.6994 21.5,66.5C 19.2908,65.937 17.7908,64.6036 17,62.5C 14.0568,57.0835 13.2235,51.4168 14.5,45.5C 18.2054,42.7949 21.2054,39.4616 23.5,35.5 Z"/></g>
<g><path style="opacity:1" fill="#d1d0cc" d="M 82.5,61.5 C 83.209,60.596 84.209,60.2627 85.5,60.5C 86.368,62.8967 87.0347,65.3967 87.5,68C 87.4915,69.7067 87.1582,71.2067 86.5,72.5C 86.857,68.0422 85.5237,64.3755 82.5,61.5 Z"/></g>
<g><path style="opacity:1" fill="#8f8a83" d="M 72.5,60.5 C 75.2257,63.6061 77.2257,67.2728 78.5,71.5C 77.6236,71.6309 76.9569,71.2975 76.5,70.5C 75.2533,67.6714 73.7533,65.0048 72,62.5C 71.3083,61.5632 71.475,60.8966 72.5,60.5 Z"/></g>
<g><path style="opacity:1" fill="#84847f" d="M 82.5,61.5 C 85.5237,64.3755 86.857,68.0422 86.5,72.5C 85.8333,72.1667 85.1667,71.8333 84.5,71.5C 84.4505,67.4111 82.4505,64.7445 78.5,63.5C 79.9492,62.8281 81.2825,62.1614 82.5,61.5 Z"/></g>
<g><path style="opacity:1" fill="#919085" d="M 23.5,33.5 C 23.5,34.1667 23.5,34.8333 23.5,35.5C 21.2054,39.4616 18.2054,42.7949 14.5,45.5C 13.2235,51.4168 14.0568,57.0835 17,62.5C 17.7908,64.6036 19.2908,65.937 21.5,66.5C 19.703,73.6994 19.0363,81.0327 19.5,88.5C 18.5,88.5 17.5,88.5 16.5,88.5C 17.3069,81.8463 17.4735,75.1796 17,68.5C 13.2844,61.2535 11.6178,53.5869 12,45.5C 13.3756,44.2949 14.5423,42.9616 15.5,41.5C 18.5272,39.1395 21.1938,36.4729 23.5,33.5 Z"/></g>
<g><path style="opacity:1" fill="#979489" d="M 78.5,71.5 C 80.5,71.5 81.5,72.5 81.5,74.5C 80.9423,75.7899 79.9423,76.6232 78.5,77C 76.5,77.3333 74.5,77.6667 72.5,78C 73.4558,81.3936 73.7892,84.8936 73.5,88.5C 72.5,88.5 71.5,88.5 70.5,88.5C 70.5,83.8333 70.5,79.1667 70.5,74.5C 73.1761,75.0081 75.8428,75.1747 78.5,75C 79.1712,74.0138 79.1712,72.8471 78.5,71.5 Z"/></g>
</svg>
